<?xml version="1.0" standalone="no"?>
<!DOCTYPE svg PUBLIC "-//W3C//DTD SVG 20010904//EN"
 "http://www.w3.org/TR/2001/REC-SVG-20010904/DTD/svg10.dtd">
<svg version="1.0" xmlns="http://www.w3.org/2000/svg"
 width="600.000000pt" height="600.000000pt" viewBox="0 0 600.000000 600.000000"
 preserveAspectRatio="xMidYMid meet">

<g transform="translate(0.000000,600.000000) scale(0.100000,-0.100000)"
fill="#000000" stroke="none">
<path d="M0 3000 l0 -3000 3000 0 3000 0 0 3000 0 3000 -3000 0 -3000 0 0
-3000z m3080 2590 c391 -35 775 -168 1095 -378 162 -106 259 -185 395 -322
364 -364 591 -811 677 -1335 27 -166 24 -563 -5 -735 -96 -559 -365 -1043
-792 -1421 -336 -297 -762 -493 -1230 -565 -175 -27 -531 -25 -705 4 -374 64
-682 186 -980 390 -149 101 -200 144 -333 275 -358 353 -588 781 -677 1263
-75 408 -48 806 82 1199 242 732 843 1314 1586 1534 285 85 597 116 887 91z"/>
<path d="M4260 4445 c0 -6 4 -15 9 -20 17 -18 99 -231 121 -316 46 -178 60
-285 60 -479 1 -267 -31 -439 -126 -676 -61 -155 -169 -344 -239 -420 -5 -7
-23 -29 -40 -50 -49 -64 -209 -224 -216 -216 -8 10 -69 206 -69 223 0 8 54 55
120 104 66 50 120 93 120 98 0 4 -28 7 -62 7 -35 0 -106 3 -160 6 l-96 7 -43
126 c-23 69 -46 134 -51 145 -9 17 -11 16 -23 -7 -7 -13 -32 -79 -55 -145
l-43 -120 -141 -8 c-78 -4 -150 -7 -161 -6 -24 3 19 -37 146 -134 l86 -65 -34
-130 c-18 -72 -38 -140 -44 -151 -6 -11 -9 -22 -6 -24 2 -3 64 36 136 86 l131
91 37 -28 c21 -15 43 -33 50 -39 7 -6 32 -24 57 -40 25 -16 46 -35 46 -41 0
-7 -19 -27 -42 -43 -24 -17 -51 -37 -61 -45 -9 -8 -21 -15 -25 -15 -5 0 -17
-8 -28 -18 -27 -26 -225 -125 -319 -160 -325 -123 -687 -151 -1024 -81 -53 11
-110 22 -126 25 -19 4 -64 -4 -115 -19 -47 -14 -101 -28 -120 -31 -19 -3 -46
-8 -60 -11 -14 -3 -47 -6 -73 -7 -26 0 -50 -4 -52 -8 -11 -18 178 -147 317
-217 209 -104 419 -168 638 -194 125 -14 423 -6 520 15 169 37 284 68 332 90
18 8 64 27 102 41 38 14 75 30 81 35 7 6 34 22 61 36 27 15 58 32 69 38 41 22
191 130 220 157 17 16 50 46 74 66 104 90 260 281 322 394 13 24 27 46 30 49
8 6 83 151 85 165 2 6 21 60 45 120 23 61 48 139 55 175 8 36 21 94 29 130 25
105 31 410 11 560 -15 119 -47 272 -66 315 -4 11 -18 49 -31 85 -38 108 -112
248 -196 375 -80 119 -162 220 -163 200z m-590 -1855 c-8 -5 -22 -9 -30 -9
-10 0 -8 3 5 9 27 12 43 12 25 0z m-100 -14 c0 -9 -7 -12 -21 -9 -16 4 -17 8
-7 14 19 13 28 11 28 -5z m50 0 c0 -2 -9 -6 -20 -9 -11 -3 -18 -1 -14 4 5 9
34 13 34 5z m-70 -46 c-6 -11 -13 -20 -16 -20 -2 0 0 9 6 20 6 11 13 20 16 20
2 0 0 -9 -6 -20z m55 -17 l18 -28 -21 19 c-12 11 -22 23 -22 28 0 14 7 9 25
-19z"/>
<path d="M3340 4213 c0 -10 -6 -30 -14 -44 -7 -14 -28 -68 -46 -120 -18 -52
-36 -97 -39 -101 -3 -4 -78 -11 -165 -15 l-159 -8 118 -90 c65 -49 122 -93
127 -96 9 -6 -44 -235 -64 -276 -6 -13 -9 -25 -6 -28 2 -3 60 33 127 80 67 47
125 85 129 85 7 0 185 -122 233 -159 15 -11 29 -18 32 -15 3 4 -2 29 -12 58
-28 78 -71 222 -71 238 0 8 39 45 88 81 48 36 103 79 122 96 l35 30 -65 1
c-36 0 -108 3 -160 6 l-96 7 -49 143 c-46 134 -65 170 -65 127z m0 -403 c0 -5
-7 -10 -16 -10 -8 0 -12 5 -9 10 3 6 10 10 16 10 5 0 9 -4 9 -10z m65 0 c-26
-11 -48 -12 -41 -2 2 4 17 8 33 9 24 1 25 0 8 -7z m-75 -39 c0 -5 -8 -15 -17
-22 -16 -12 -17 -12 -6 2 7 9 10 19 6 22 -3 4 -1 7 5 7 7 0 12 -4 12 -9z m45
-21 l20 -25 -22 19 c-13 11 -23 24 -23 29 0 6 1 8 3 6 1 -2 11 -15 22 -29z"/>
<path d="M2209 4139 c-1 -30 -1 -61 0 -69 1 -10 -4 -8 -17 7 l-19 22 -34 -92
-34 -92 -40 -2 c-165 -10 -207 -16 -194 -25 10 -7 9 -8 -6 -3 -11 3 -33 9 -50
11 -36 6 -42 13 108 -104 59 -46 107 -86 107 -90 0 -22 -55 -232 -68 -260 -8
-17 -13 -34 -11 -36 3 -3 62 35 133 84 l129 90 46 -34 c127 -92 211 -145 211
-133 0 8 -18 74 -40 147 -22 73 -40 137 -40 141 0 3 54 48 120 99 66 51 120
97 120 101 0 5 -70 10 -156 11 l-156 3 -48 134 c-27 73 -52 136 -55 139 -3 3
-6 -19 -6 -49z m41 -334 c-10 -12 -9 -15 6 -16 15 0 14 -2 -5 -10 -13 -5 -25
-8 -27 -6 -5 4 25 47 33 47 3 0 0 -7 -7 -15z m-40 -20 c0 -8 -7 -15 -15 -15
-16 0 -20 12 -8 23 11 12 23 8 23 -8z m-17 -40 c-3 -9 -8 -14 -10 -11 -3 3 -2
9 2 15 9 16 15 13 8 -4z m48 -27 l22 -33 -27 27 c-24 25 -32 38 -22 38 3 0 15
-15 27 -32z"/>
<path d="M2430 2947 c0 -13 -4 -27 -10 -33 -5 -5 -25 -52 -44 -104 -19 -52
-37 -103 -41 -112 -6 -14 -19 -18 -64 -18 -89 0 -251 -12 -251 -19 1 -3 55
-46 121 -96 135 -100 128 -85 89 -205 -15 -44 -28 -98 -35 -140 0 -3 -6 -15
-13 -27 -7 -13 -9 -23 -5 -23 5 0 64 38 133 85 68 47 129 84 135 81 6 -2 64
-41 128 -86 65 -45 121 -80 126 -78 4 2 -12 64 -35 138 -24 74 -43 143 -43
152 -1 10 46 53 119 109 67 50 119 94 116 97 -3 2 -72 7 -153 9 -81 3 -151 8
-154 12 -3 3 -28 68 -55 143 -47 133 -64 163 -64 115z m45 -377 c-3 -5 2 -10
12 -11 16 0 16 -1 -2 -9 -31 -14 -36 -11 -25 10 6 11 13 20 16 20 3 0 2 -4 -1
-10z m-45 -21 c0 -5 -4 -9 -8 -9 -5 0 -9 7 -9 15 0 8 4 12 9 9 4 -3 8 -9 8
-15z m35 -59 l20 -25 -22 19 c-13 11 -23 24 -23 29 0 6 1 8 3 6 1 -2 11 -15
22 -29z"/>
<path d="M1170 2578 c0 -30 102 -240 154 -317 20 -29 36 -57 36 -62 0 -5 5 -9
10 -9 6 0 10 -6 10 -14 0 -8 3 -16 8 -18 4 -1 24 -26 44 -55 60 -84 209 -243
228 -243 42 0 280 84 280 99 0 3 -35 23 -78 43 -121 58 -189 100 -295 179
-130 97 -303 267 -355 348 -16 26 -42 56 -42 49z"/>
</g>
</svg>
